<svg width="27" height="31" viewBox="0 0 27 31" fill="none" xmlns="http://www.w3.org/2000/svg">
<g clip-path="url(#clip0_4_52)">
<path d="M27 12.7094C24.3467 12.7158 21.7584 11.8845 19.6009 10.3329V21.1539C19.6002 23.158 18.9904 25.1142 17.8532 26.7608C16.7159 28.4074 15.1054 29.666 13.237 30.3682C11.3685 31.0704 9.3312 31.1829 7.39742 30.6905C5.46365 30.1981 3.7256 29.1243 2.41568 27.6127C1.10576 26.1012 0.286397 24.2239 0.0671596 22.2319C-0.152078 20.2398 0.239259 18.2281 1.18884 16.4655C2.13842 14.703 3.60099 13.2737 5.38097 12.3687C7.16096 11.4638 9.17352 11.1264 11.1495 11.4016V16.8441C10.2453 16.5584 9.27432 16.567 8.37525 16.8687C7.47618 17.1705 6.695 17.7499 6.14326 18.5242C5.59152 19.2986 5.29745 20.2283 5.30303 21.1806C5.30862 22.1329 5.61357 23.059 6.17435 23.8268C6.73513 24.5946 7.52305 25.1647 8.4256 25.4558C9.32815 25.7468 10.2992 25.7439 11.2 25.4475C12.1008 25.1511 12.8854 24.5763 13.4416 23.8052C13.9979 23.0341 14.2974 22.1062 14.2973 21.1539V0H19.6009C19.5972 0.449948 19.6347 0.899283 19.713 1.34232C19.8973 2.33135 20.2805 3.2722 20.8391 4.10734C21.3978 4.94248 22.1201 5.65434 22.962 6.19939C24.1598 6.99504 25.5641 7.41911 27 7.41881V12.7094Z" fill="white"/>
</g>
<defs>
<clipPath id="clip0_4_52">
<rect width="27" height="31" fill="white"/>
</clipPath>
</defs>
</svg>
